<?xml version="1.0" encoding="UTF-8"?>
<svg id="Calque_2" data-name="Calque 2" xmlns="http://www.w3.org/2000/svg" viewBox="0 0 608.98 608.98">
  <defs>
    <style>
      .cls-1 {
        fill: #c631e6;
      }

      .cls-2 {
        fill: #1c191e;
      }

      .cls-3 {
        fill: #9802e0;
      }
    </style>
  </defs>
  <g id="Calque_1-2" data-name="Calque 1">
    <g>
      <path class="cls-3" d="M352.48,369.14l-16.26-16.26c-.51.35-1.05.68-1.57,1-.37.23-.74.45-1.11.66-.38.22-.75.44-1.13.64-.38.21-.75.42-1.13.61-.3.16-.58.31-.88.45-.51.27-1.03.52-1.55.76-.29.13-.59.27-.88.4-3.33,1.48-6.82,2.65-10.44,3.49-.46.1-.93.2-1.38.29-.39.08-.78.16-1.18.23-.19.04-.39.07-.59.11-.34.06-.67.11-1.01.16-.04.01-.09.02-.15.02-.4.07-.81.12-1.22.17-.54.08-1.09.14-1.65.19-.46.05-.94.1-1.41.13-.88.07-1.78.12-2.67.14-.6.02-1.18.03-1.79.03-1,0-1.98-.03-2.97-.08-.49-.02-.98-.05-1.48-.09-.47-.04-.94-.08-1.43-.13-.62-.06-1.23-.13-1.84-.22-.32-.03-.63-.08-.94-.13-.37-.05-.75-.11-1.11-.18-.46-.08-.92-.16-1.36-.25-.41-.07-.82-.15-1.21-.25-.42-.08-.81-.17-1.22-.27-.39-.09-.79-.19-1.19-.3-.39-.1-.79-.21-1.19-.33-.78-.22-1.57-.46-2.33-.72-.39-.13-.77-.26-1.15-.4-.37-.13-.73-.26-1.09-.4-2.45-.92-4.81-2.01-7.08-3.25-.41-.22-.8-.44-1.2-.67-.41-.23-.81-.47-1.21-.71-1.23-.75-2.44-1.54-3.6-2.38-.35-.24-.68-.49-1.01-.74-.24-.18-.49-.36-.73-.55-.27-.21-.54-.42-.8-.63-1.24-1-2.45-2.05-3.62-3.15-.2-.19-.41-.39-.62-.6-.54-.53-1.08-1.08-1.62-1.63-.27-.3-.56-.6-.82-.9-.32-.34-.63-.69-.93-1.04-.29-.34-.59-.69-.89-1.05-.5-.62-1-1.24-1.49-1.88-.24-.32-.47-.64-.7-.96-.15-.2-.3-.41-.44-.61-.24-.33-.46-.67-.7-1-.31-.48-.63-.96-.94-1.45-.44-.69-.86-1.4-1.28-2.11-.46-.82-.91-1.65-1.34-2.48-.22-.41-.42-.83-.61-1.24-1.24-2.53-2.27-5.17-3.12-7.89-.24-.78-.46-1.56-.68-2.36-.15-.6-.31-1.22-.44-1.83-.19-.82-.37-1.65-.51-2.49-.06-.3-.12-.6-.17-.9-.13-.75-.23-1.5-.32-2.25-.07-.48-.13-.95-.18-1.43-.13-1.29-.21-2.59-.26-3.91-.02-.67-.03-1.35-.03-2.03,0-31.96,25.9-57.87,57.85-57.87.59,0,1.17.01,1.74.03.44.01.87.03,1.31.05.42.02.85.05,1.26.08.08,0,.15.01.22.02.4.02.81.06,1.21.1,1.49.15,2.97.35,4.42.61.32.05.64.11.95.18.19.03.38.07.56.11.31.06.63.12.94.2.36.08.72.16,1.07.25.43.1.85.2,1.25.32.6.15,1.19.32,1.76.5.43.12.86.25,1.28.39.58.19,1.18.4,1.76.61.5.18,1,.37,1.5.57t.01.01c.51.19,1.01.4,1.51.62.5.21,1,.43,1.49.66.5.22.98.45,1.45.69.02,0,.02.01.03.01.58.29,1.18.6,1.76.92,1.01.54,2,1.11,2.96,1.72.25.15.5.3.74.46.07.05.16.1.23.15,1.51-1.54,3.08-3.14,4.71-4.8,3.6-3.64,7.41-7.5,11.43-11.56,10.7-10.8,22.92-23.08,36.6-36.76,8.86-8.86,18.34-18.31,28.41-28.33,6.52-6.5,13.29-13.23,20.31-20.2l.4-.39c2.84-2.82,5.67-5.63,8.51-8.44,9.61-9.54,19.18-19.02,28.52-28.27,12.76-12.63,25.09-24.82,36.53-36.11C457.02,30.74,384.34,0,304.48,0,136.32,0,0,136.32,0,304.49c0,21.34,2.19,42.16,6.38,62.26,13.53,65.18,47.9,122.72,95.84,165.35,53.78,47.83,124.63,76.88,202.26,76.88s152.53-30.73,206.83-81.01l-158.83-158.83ZM431.37,267.76c-5.37-18.54-14.7-35.4-27.01-49.62-13.18,13.17-25.49,25.53-36.52,36.66-5.73,5.78-11.11,11.22-16.09,16.29.52.72,1.01,1.46,1.48,2.21.22.32.42.64.61.96.54.87,1.05,1.75,1.53,2.64.19.35.36.69.54,1.03.06.11.12.21.17.31.19.39.39.77.57,1.16.43.89.83,1.79,1.22,2.7.14.34.28.68.41,1.02.17.41.32.83.48,1.24.2.52.38,1.04.56,1.57.05.16.09.31.15.47.13.41.26.82.38,1.24.12.33.22.67.31,1.01.29.99.54,2,.76,3.02.1.37.18.74.24,1.11.22.99.4,2,.55,3.02.05.3.08.61.12.92.15,1.1.27,2.22.36,3.35.03.29.04.58.06.87.02.33.03.66.04.99.02.23.03.46.03.69.03.62.03,1.24.03,1.87,0,1.31-.03,2.61-.13,3.9-.03.55-.07,1.1-.13,1.64-.06.61-.12,1.21-.2,1.81-.05.49-.12.98-.2,1.46-.12.82-.27,1.63-.43,2.43-.1.49-.19.97-.3,1.45-.18.84-.39,1.67-.62,2.49-.06.26-.14.52-.21.78-.1.3-.17.6-.28.89-.07.29-.16.57-.25.85-.15.49-.32.98-.5,1.46-.12.34-.23.68-.37,1.01-.12.35-.26.7-.39,1.05-.12.3-.24.6-.37.9-.06.15-.12.31-.19.47-.25.6-.52,1.2-.8,1.79-.1.24-.21.47-.33.71-.17.34-.33.69-.51,1.03-.14.28-.29.56-.44.84-.89,1.7-1.86,3.35-2.92,4.94-.19.28-.37.56-.56.84-.08.1-.15.21-.24.31l16.21,16.19,36.6,36.6c19.81-23.1,31.78-53.1,31.78-85.84,0-12.74-1.81-25.07-5.2-36.73ZM585.67,187.45c-14.08-33.83-34.11-64.58-58.78-90.93-12.09,11.93-24.32,24.02-36.5,36.08,21.81,23.54,38.67,50.54,50.05,79.73,11.32,28.98,17.24,60.11,17.24,92.16,0,64.21-23.75,124.78-67.08,171.66l36.3,36.3c50.93-54.43,82.08-127.56,82.08-207.96,0-41.47-8.28-81.01-23.31-117.04ZM504.61,230.96c-9.64-26.15-24.26-49.91-42.72-70.11-9.92,9.84-19.68,19.55-29.18,29,15.42,17.22,27.43,37.57,34.95,59.95,5.78,17.19,8.91,35.58,8.91,54.69,0,43.77-16.43,83.78-43.45,114.18l29.1,29.1c34.44-37.88,55.46-88.17,55.46-143.28,0-25.83-4.62-50.6-13.07-73.53Z"/>
      <g>
        <path class="cls-1" d="M293.35,361.28c-8.15,6.32-15.54,12.41-20.92,17.08-3.24,2.82-5.75,5.11-7.26,6.64-6.78,6.86-84.27,78.62-107.87,96.6-16.33,12.44-41.27,36.72-55.08,50.5-47.93-42.63-82.31-100.17-95.84-165.35,22.32-4.82,96.8-20.84,120.58-25.6,25.68-5.14,76.5-15.12,98.1-23.52,2.03-.79,3.8-1.56,5.27-2.32,5.21-2.68,10.71-5.64,16.34-8.79.04,1.32.13,2.62.26,3.91.05.48.1.95.17,1.43.09.75.2,1.5.33,2.25.05.3.1.6.16.9.15.84.32,1.67.51,2.49.14.61.29,1.23.45,1.83.21.8.44,1.58.68,2.36.84,2.72,1.88,5.36,3.11,7.89.2.41.4.83.61,1.24.43.83.88,1.66,1.35,2.48.41.71.83,1.42,1.27,2.11.31.49.63.97.94,1.45.24.33.47.67.7,1,.15.2.29.41.44.61.23.32.47.64.71.96.48.64.98,1.26,1.48,1.88.3.36.6.71.9,1.05.3.35.6.7.92,1.04.27.3.55.6.83.9.53.55,1.07,1.1,1.61,1.63.21.21.42.41.63.6,1.16,1.1,2.37,2.15,3.61,3.15.27.21.53.42.8.63.24.19.49.37.73.55.33.25.67.5,1.01.74,1.17.84,2.37,1.63,3.61,2.38.39.24.79.48,1.2.71.4.23.8.45,1.2.67,2.27,1.24,4.63,2.33,7.08,3.25.36.14.72.27,1.09.4.38.14.76.27,1.15.4.77.26,1.55.5,2.34.72.39.12.79.23,1.19.33.39.11.79.21,1.19.3.4.1.8.19,1.21.27.4.1.8.18,1.21.25Z"/>
        <path class="cls-1" d="M437.75,153.84l-.4.39c-7.02,6.97-13.79,13.7-20.31,20.2-10.07,10.02-19.55,19.47-28.41,28.33-13.68,13.68-25.9,25.96-36.6,36.76-4.02,4.06-7.83,7.92-11.43,11.56-1.63,1.66-3.2,3.26-4.71,4.8-.07-.05-.16-.1-.23-.15-.24-.16-.49-.31-.74-.46-.96-.61-1.95-1.18-2.96-1.72-.58-.32-1.18-.63-1.76-.92,2.94-2.35,5.27-4.38,6.88-6.01,2.33-2.35,5.89-5.89,10.34-10.25,9.63-9.43,23.43-22.72,37.9-36.27,10.01-9.38,20.33-18.87,29.82-27.3,4.13-3.67,8.1-7.13,11.82-10.3,2.95-2.52,6.61-5.44,10.79-8.66Z"/>
        <path class="cls-1" d="M404.36,218.14c12.31,14.22,21.64,31.08,27.01,49.62-2.04.97-3.89,1.85-5.53,2.61-11.9,5.52-26.53,14.91-41.34,25.23-7.6,5.3-15.25,10.85-22.61,16.24.08-.6.14-1.2.2-1.81.06-.54.1-1.09.13-1.64.1-1.29.13-2.59.13-3.9,0-.63,0-1.25-.03-1.87,0-.23-.01-.46-.03-.69-.01-.33-.02-.66-.04-.99-.02-.29-.03-.58-.06-.87-.09-1.13-.21-2.25-.36-3.35-.04-.31-.07-.62-.12-.92-.15-1.02-.33-2.03-.55-3.02-.06-.37-.14-.74-.24-1.11-.22-1.02-.47-2.03-.76-3.02-.09-.34-.19-.68-.31-1.01-.12-.42-.25-.83-.38-1.24-.06-.16-.1-.31-.15-.47-.18-.53-.36-1.05-.56-1.57-.16-.41-.31-.83-.48-1.24-.13-.34-.27-.68-.41-1.02-.39-.91-.79-1.81-1.22-2.7-.18-.39-.38-.77-.57-1.16-.05-.1-.11-.2-.17-.31-.18-.34-.35-.68-.54-1.03-.48-.89-.99-1.77-1.53-2.64-.19-.32-.39-.64-.61-.96-.47-.75-.96-1.49-1.48-2.21,4.98-5.07,10.36-10.51,16.09-16.29,11.03-11.13,23.34-23.49,36.52-36.66Z"/>
        <path class="cls-1" d="M461.89,160.85c18.46,20.2,33.08,43.96,42.72,70.11-12.37,6.37-25.13,12.88-36.95,18.84-7.52-22.38-19.53-42.73-34.95-59.95,9.5-9.45,19.26-19.16,29.18-29Z"/>
        <path class="cls-1" d="M585.67,187.45c-8.23,4.11-14.86,7.61-16.01,8.76-1.07,1.07-12.76,7.44-29.22,16.12-11.38-29.19-28.24-56.19-50.05-79.73,12.18-12.06,24.41-24.15,36.5-36.08,24.67,26.35,44.7,57.1,58.78,90.93Z"/>
      </g>
      <path class="cls-2" d="M384.5,295.6c-1.67-15.3-7.63-29.31-16.66-40.8-5.73,5.78-11.11,11.22-16.09,16.29.52.72,1.01,1.46,1.48,2.21.22.32.42.64.61.96.54.87,1.05,1.75,1.53,2.64.19.35.36.69.54,1.03.06.11.12.21.17.31.19.39.39.77.57,1.16.43.89.83,1.79,1.22,2.7.14.34.28.68.41,1.02.17.41.32.83.48,1.24.19.52.38,1.04.56,1.57.05.16.09.31.15.47.13.41.26.82.38,1.24.12.33.22.67.31,1.01.29.99.54,2,.76,3.02.1.37.18.74.24,1.11.22.99.4,2,.55,3.02.05.3.08.61.12.92.15,1.1.27,2.22.36,3.35.03.29.04.58.06.87.02.33.03.66.04.99.02.23.03.46.03.69.03.62.03,1.24.03,1.87,0,1.31-.03,2.61-.13,3.9-.03.55-.07,1.1-.13,1.64-.06.61-.12,1.21-.2,1.81-.05.49-.12.98-.2,1.46-.12.82-.27,1.63-.43,2.43-.1.49-.19.97-.3,1.45-.18.84-.39,1.67-.62,2.49-.06.26-.14.52-.21.78-.1.3-.17.6-.28.89-.07.29-.16.57-.25.85-.15.49-.32.98-.5,1.46-.12.34-.23.68-.37,1.01-.12.35-.26.7-.39,1.05-.12.3-.24.6-.37.9-.06.15-.12.31-.19.47-.25.6-.52,1.2-.8,1.79-.1.24-.21.47-.33.71-.17.34-.33.69-.51,1.03-.14.28-.29.56-.44.84-.89,1.7-1.86,3.35-2.92,4.94-.19.28-.37.56-.56.84-.08.1-.15.21-.24.31l16.21,16.19c10.53-13.61,16.81-30.7,16.81-49.24,0-3.01-.16-5.97-.5-8.89ZM336.22,352.88c-.51.35-1.05.68-1.57,1-.37.23-.74.45-1.11.66-.38.22-.75.44-1.13.64-.38.21-.75.42-1.13.61-.3.16-.58.31-.88.45-.51.27-1.03.52-1.55.76-.29.13-.59.27-.88.4-3.33,1.48-6.82,2.65-10.44,3.49-.46.1-.93.2-1.38.29-.39.08-.78.16-1.18.23-.19.04-.39.07-.59.11-.34.06-.67.11-1.01.16-.04.01-.09.02-.15.02-.4.07-.81.12-1.22.17-.54.08-1.09.14-1.65.19-.46.05-.94.1-1.41.13-.88.07-1.78.12-2.67.14-.6.02-1.18.03-1.79.03-1,0-1.98-.03-2.97-.08-.49-.02-.98-.05-1.48-.09-.47-.04-.94-.08-1.43-.13-.62-.06-1.23-.13-1.84-.22-.32-.03-.63-.08-.94-.13-.37-.05-.75-.11-1.11-.18-.46-.07-.92-.15-1.36-.25-.41-.07-.82-.15-1.21-.25-.42-.08-.81-.17-1.22-.27-.39-.09-.79-.19-1.19-.3-.39-.1-.79-.21-1.19-.33-.78-.22-1.57-.46-2.33-.72-.39-.13-.77-.26-1.15-.4-.37-.13-.73-.26-1.09-.4-2.45-.92-4.81-2.01-7.08-3.25-.41-.22-.8-.44-1.2-.67-.41-.23-.81-.47-1.21-.71-1.23-.75-2.44-1.54-3.6-2.38-.35-.24-.68-.49-1.01-.74-.24-.18-.49-.36-.73-.55-.27-.21-.54-.42-.8-.63-1.24-1-2.45-2.05-3.62-3.15-.2-.19-.41-.39-.62-.6-.54-.53-1.08-1.08-1.62-1.63-.27-.3-.56-.6-.82-.9-.32-.34-.63-.69-.93-1.04-.29-.34-.59-.69-.89-1.05-.5-.62-1-1.24-1.49-1.88-.24-.32-.47-.64-.7-.96-.15-.2-.3-.41-.44-.61-.24-.33-.46-.67-.7-1-.31-.48-.63-.96-.94-1.45-.44-.69-.86-1.4-1.28-2.11-.46-.82-.91-1.65-1.34-2.48-.22-.41-.42-.83-.61-1.24-1.24-2.53-2.27-5.17-3.12-7.89-.24-.78-.46-1.56-.68-2.36-.15-.6-.31-1.22-.44-1.83-.19-.82-.37-1.65-.51-2.49-.06-.3-.12-.6-.17-.9-.13-.75-.23-1.5-.32-2.25-.07-.48-.13-.95-.18-1.43-.13-1.29-.21-2.59-.26-3.91-.02-.67-.03-1.35-.03-2.03,0-31.96,25.9-57.87,57.85-57.87.59,0,1.17.01,1.74.03.44.01.87.03,1.31.05.42.02.85.05,1.26.08.08,0,.15.01.22.02.4.03.81.06,1.21.1,1.49.15,2.97.35,4.42.61.32.05.64.11.95.18.19.03.38.07.56.11.32.06.63.13.94.2.36.08.72.16,1.07.25.43.1.85.2,1.25.32.6.15,1.19.32,1.76.5.43.12.86.25,1.28.39.58.19,1.18.4,1.76.61.5.18,1,.37,1.5.57t.01.01c.51.19,1.01.4,1.51.62.5.21,1,.43,1.49.66.5.22.98.45,1.45.69.02,0,.02.01.03.01.58.29,1.18.6,1.76.92,1.01.54,2,1.11,2.96,1.72.25.15.5.3.74.46.07.05.16.1.23.15,1.51-1.54,3.08-3.14,4.71-4.8,3.6-3.64,7.41-7.5,11.43-11.56-1.49-1.1-3.02-2.15-4.61-3.15-12.41-7.85-27.14-12.39-42.94-12.39-44.45,0-80.51,36.05-80.51,80.51,0,4.48.38,8.87,1.09,13.14,4.47,27.32,22.72,50.02,47.36,60.73,9.83,4.27,20.68,6.64,32.06,6.64,17.99,0,34.61-5.9,48-15.86l-16.26-16.26Z"/>
    </g>
  </g>
</svg>