<?xml version="1.0" encoding="UTF-8"?>
<svg id="Calque_2" data-name="Calque 2" xmlns="http://www.w3.org/2000/svg" viewBox="0 0 706.62 706.62">
  <defs>
    <style>
      .cls-1 {
        fill: #fafafa;
      }

      .cls-2 {
        fill: #9802e0;
      }

      .cls-3 {
        fill: #1c191e;
      }
    </style>
  </defs>
  <g id="Calque_2-2" data-name="Logo_Blindtest_Maker">
    <g>
      <rect class="cls-1" x="236.14" y="102.76" width="370" height="370"/>
      <ellipse class="cls-3" cx="517.79" cy="311.38" rx="56" ry="95.33" transform="translate(-68.52 457.33) rotate(-45)"/>
      <path class="cls-2" d="M434.9,0c-21.8.16-44.86,4.9-66.5,7.55-43.56,5.34-128.07,42.47-220.74,135.14C44.22,246.15-19.48,350.17,5.38,375.03c13.22,13.22,48.78,1.42,94.74-28.07,6.24-4.01,13.21,3.9,8.45,9.59C30.09,450.11-13.53,523.73,3.76,541.02c13.2,13.21,59.32-9.15,122.1-55.46,6.19-4.57,13.75,3.55,8.75,9.4C40.45,604.89-13.44,687.38,2.9,703.72c16.33,16.33,98.83-37.55,208.76-131.7,5.84-5.01,13.97,2.55,9.4,8.75-46.3,62.78-68.67,108.89-55.46,122.1,17.28,17.28,90.91-26.34,184.47-104.8,5.68-4.77,13.59,2.2,9.59,8.45-29.49,45.95-41.28,81.52-28.07,94.74,24.86,24.86,128.88-38.84,232.33-142.28,92.66-92.67,125.86-179.37,133.37-215.4,4.44-21.33,9.16-50.04,9.32-71.84.01-.7.01-1.39.01-2.09C706.62,120.06,584.73-1.12,434.9,0ZM568.76,430.47c-14.7,14.7-64.82-10.24-123.36-58.27-18.8-15.42-38.47-33.23-58.11-52.87s-37.45-39.31-52.87-58.11c-48.03-58.54-72.97-108.66-58.27-123.36,19.43-19.42,100.67,30.34,181.47,111.14s130.56,162.04,111.14,181.47Z"/>
    </g>
  </g>
</svg>